<svg xmlns="http://www.w3.org/2000/svg" width="400" height="2550" viewBox="0 0 400 2550">
<style>text{font-family:sans-serif;font-size:13px;}</style>
<rect x="10" y="20" width="240" height="32" rx="6" fill="#ffd86b" stroke="#333"/>
<text x="20" y="40">Photo Story</text>
<rect x="50" y="70" width="240" height="32" rx="6" fill="#ffd86b" stroke="#333"/>
<text x="60" y="90">后端</text>
<rect x="90" y="120" width="240" height="32" rx="6" fill="#ffd86b" stroke="#333"/>
<text x="100" y="140">后台任务</text>
<rect x="130" y="170" width="240" height="32" rx="6" fill="#8fd19e" stroke="#333"/>
<text x="140" y="190">离线运行</text>
<rect x="130" y="220" width="240" height="32" rx="6" fill="#8fd19e" stroke="#333"/>
<text x="140" y="240">命令行直接运行</text>
<rect x="130" y="270" width="240" height="32" rx="6" fill="#ffffff" stroke="#333"/>
<text x="140" y="290">docker compose 支持</text>
<rect x="130" y="320" width="240" height="32" rx="6" fill="#ffffff" stroke="#333"/>
<text x="140" y="340">kubernetes 支持</text>
<rect x="130" y="370" width="240" height="32" rx="6" fill="#ffffff" stroke="#333"/>
<text x="140" y="390">可重入</text>
<rect x="130" y="420" width="240" height="32" rx="6" fill="#8fd19e" stroke="#333"/>
<text x="140" y="440">可跟踪状态</text>
<rect x="130" y="470" width="240" height="32" rx="6" fill="#8fd19e" stroke="#333"/>
<text x="140" y="490">可停止</text>
<rect x="130" y="520" width="240" height="32" rx="6" fill="#ffffff" stroke="#333"/>
<text x="140" y="540">人脸识别</text>
<rect x="130" y="570" width="240" height="32" rx="6" fill="#ffffff" stroke="#333"/>
<text x="140" y="590">风格处理</text>
<rect x="130" y="620" width="240" height="32" rx="6" fill="#8fd19e" stroke="#333"/>
<text x="140" y="640">简单查询</text>
<rect x="130" y="670" width="240" height="32" rx="6" fill="#ffffff" stroke="#333"/>
<text x="140" y="690">基于语义的查询</text>
<rect x="130" y="720" width="240" height="32" rx="6" fill="#8fd19e" stroke="#333"/>
<text x="140" y="740">图像理解</text>
<rect x="130" y="770" width="240" height="32" rx="6" fill="#8fd19e" stroke="#333"/>
<text x="140" y="790">视频生成</text>
<rect x="130" y="820" width="240" height="32" rx="6" fill="#8fd19e" stroke="#333"/>
<text x="140" y="840">视频合成</text>
<rect x="90" y="870" width="240" height="32" rx="6" fill="#ffd86b" stroke="#333"/>
<text x="100" y="890">API</text>
<rect x="130" y="920" width="240" height="32" rx="6" fill="#ffffff" stroke="#333"/>
<text x="140" y="940">身份验证</text>
<rect x="130" y="970" width="240" height="32" rx="6" fill="#ffffff" stroke="#333"/>
<text x="140" y="990">第三方发布</text>
<rect x="130" y="1020" width="240" height="32" rx="6" fill="#ffd86b" stroke="#333"/>
<text x="140" y="1040">素材</text>
<rect x="170" y="1070" width="240" height="32" rx="6" fill="#8fd19e" stroke="#333"/>
<text x="180" y="1090">素材上传</text>
<rect x="170" y="1120" width="240" height="32" rx="6" fill="#8fd19e" stroke="#333"/>
<text x="180" y="1140">tag 管理</text>
<rect x="170" y="1170" width="240" height="32" rx="6" fill="#8fd19e" stroke="#333"/>
<text x="180" y="1190">摘要编辑</text>
<rect x="170" y="1220" width="240" height="32" rx="6" fill="#ffffff" stroke="#333"/>
<text x="180" y="1240">区域标注支持</text>
<rect x="170" y="1270" width="240" height="32" rx="6" fill="#ffffff" stroke="#333"/>
<text x="180" y="1290">基于 tags 的采样接口</text>
<rect x="170" y="1320" width="240" height="32" rx="6" fill="#ffffff" stroke="#333"/>
<text x="180" y="1340">基于语义的搜索</text>
<rect x="130" y="1370" width="240" height="32" rx="6" fill="#8fd19e" stroke="#333"/>
<text x="140" y="1390">作品</text>
<rect x="170" y="1420" width="240" height="32" rx="6" fill="#8fd19e" stroke="#333"/>
<text x="180" y="1440">文章编辑</text>
<rect x="170" y="1470" width="240" height="32" rx="6" fill="#8fd19e" stroke="#333"/>
<text x="180" y="1490">视频创作</text>
<rect x="170" y="1520" width="240" height="32" rx="6" fill="#8fd19e" stroke="#333"/>
<text x="180" y="1540">流式播放</text>
<rect x="50" y="1570" width="240" height="32" rx="6" fill="#ffd86b" stroke="#333"/>
<text x="60" y="1590">前端</text>
<rect x="90" y="1620" width="240" height="32" rx="6" fill="#ffffff" stroke="#333"/>
<text x="100" y="1640">身份验证</text>
<rect x="90" y="1670" width="240" height="32" rx="6" fill="#ffd86b" stroke="#333"/>
<text x="100" y="1690">标注管理系统</text>
<rect x="130" y="1720" width="240" height="32" rx="6" fill="#8fd19e" stroke="#333"/>
<text x="140" y="1740">标签编辑</text>
<rect x="130" y="1770" width="240" height="32" rx="6" fill="#8fd19e" stroke="#333"/>
<text x="140" y="1790">摘要编辑</text>
<rect x="130" y="1820" width="240" height="32" rx="6" fill="#ffffff" stroke="#333"/>
<text x="140" y="1840">区域标注</text>
<rect x="90" y="1870" width="240" height="32" rx="6" fill="#ffffff" stroke="#333"/>
<text x="100" y="1890">素材选取托盘</text>
<rect x="90" y="1920" width="240" height="32" rx="6" fill="#ffffff" stroke="#333"/>
<text x="100" y="1940">任务管理</text>
<rect x="90" y="1970" width="240" height="32" rx="6" fill="#8fd19e" stroke="#333"/>
<text x="100" y="1990">照片墙</text>
<rect x="90" y="2020" width="240" height="32" rx="6" fill="#ffffff" stroke="#333"/>
<text x="100" y="2040">流式浏览</text>
<rect x="90" y="2070" width="240" height="32" rx="6" fill="#8fd19e" stroke="#333"/>
<text x="100" y="2090">编辑界面</text>
<rect x="130" y="2120" width="240" height="32" rx="6" fill="#8fd19e" stroke="#333"/>
<text x="140" y="2140">文章编辑</text>
<rect x="130" y="2170" width="240" height="32" rx="6" fill="#8fd19e" stroke="#333"/>
<text x="140" y="2190">视频编辑</text>
<rect x="50" y="2220" width="240" height="32" rx="6" fill="#ffd86b" stroke="#333"/>
<text x="60" y="2240">mock</text>
<rect x="90" y="2270" width="240" height="32" rx="6" fill="#8fd19e" stroke="#333"/>
<text x="100" y="2290">Chat 模型模拟</text>
<rect x="90" y="2320" width="240" height="32" rx="6" fill="#8fd19e" stroke="#333"/>
<text x="100" y="2340">VL 模型模拟</text>
<rect x="90" y="2370" width="240" height="32" rx="6" fill="#8fd19e" stroke="#333"/>
<text x="100" y="2390">Image to Video 模拟</text>
<rect x="90" y="2420" width="240" height="32" rx="6" fill="#ffffff" stroke="#333"/>
<text x="100" y="2440">风格重绘模拟</text>
</svg>